<?xml version="1.0" encoding="utf-8"?>
<!-- Generator: Adobe Illustrator 24.3.0, SVG Export Plug-In . SVG Version: 6.00 Build 0)  -->
<svg version="1.1" id="圖層_1" xmlns="http://www.w3.org/2000/svg" xmlns:xlink="http://www.w3.org/1999/xlink" x="0px" y="0px"
	 viewBox="0 0 230.57 227.92" style="enable-background:new 0 0 230.57 227.92;" xml:space="preserve">
<style type="text/css">
	.st0{fill:none;stroke:#000000;stroke-width:15;stroke-miterlimit:10;}
	.st1{fill:none;stroke:#000000;stroke-width:15;stroke-linecap:round;stroke-linejoin:round;stroke-miterlimit:10;}
</style>
<g>
	<path class="st0" d="M177.49,48.91H53.09c-22.8,0-41.29,19.37-41.29,43.26v72.69c0,23.9,18.49,43.27,41.29,43.27h124.4
		c22.8,0,41.29-19.37,41.29-43.27V92.17C218.77,68.28,200.29,48.91,177.49,48.91z"/>
	<path d="M157.28,123.91l-69.2-44.3c-3.2-2.05-7.21,0.52-7.21,4.63v88.59c0,4.1,4,6.67,7.21,4.61l69.2-44.29
		C160.48,131.09,160.48,125.95,157.28,123.91z"/>
	<line class="st1" x1="75.57" y1="19.79" x2="93.41" y2="45.91"/>
	<line class="st1" x1="155" y1="19.79" x2="137.17" y2="45.91"/>
</g>
</svg>
